<svg width="15" height="12" viewBox="0 0 15 12" fill="none" xmlns="http://www.w3.org/2000/svg">
<path d="M5.08249 8.43363L12.2117 1.30446C12.4332 1.08293 12.7151 0.972168 13.0575 0.972168C13.3998 0.972168 13.6818 1.08293 13.9033 1.30446C14.1248 1.52599 14.2356 1.80793 14.2356 2.15029C14.2356 2.49265 14.1248 2.7746 13.9033 2.99613L5.92832 10.9711C5.68665 11.2128 5.40471 11.3336 5.08249 11.3336C4.76026 11.3336 4.47832 11.2128 4.23665 10.9711L1.09499 7.82946C0.873459 7.60793 0.762695 7.32599 0.762695 6.98363C0.762695 6.64126 0.873459 6.35932 1.09499 6.13779C1.31651 5.91626 1.59846 5.8055 1.94082 5.8055C2.28318 5.8055 2.56513 5.91626 2.78665 6.13779L5.08249 8.43363Z" fill="white"/>
</svg>