<svg width="29" height="29" viewBox="0 0 29 29" fill="none" xmlns="http://www.w3.org/2000/svg">
<path d="M13.9996 12.5861L7.63565 6.22214C7.24518 5.83167 6.61211 5.83167 6.22165 6.22214V6.22214C5.83118 6.6126 5.83118 7.24567 6.22165 7.63614L12.5856 14.0001L6.22165 20.3641C5.83118 20.7546 5.83118 21.3877 6.22165 21.7781V21.7781C6.61211 22.1686 7.24518 22.1686 7.63565 21.7781L13.9996 15.4141L20.3636 21.7781C20.7541 22.1686 21.3872 22.1686 21.7776 21.7781V21.7781C22.1681 21.3877 22.1681 20.7546 21.7776 20.3641L15.4136 14.0001L21.7776 7.63614C22.1681 7.24567 22.1681 6.6126 21.7776 6.22214V6.22214C21.3872 5.83167 20.7541 5.83167 20.3636 6.22214L13.9996 12.5861Z" fill="black"/>
</svg>
