<svg width="128" height="128" viewBox="0 0 128 128" fill="none" xmlns="http://www.w3.org/2000/svg">
<path d="M16.0376 87.4195C13.4719 87.4195 11.1943 87.108 9.20463 86.4848C7.26732 85.9136 5.74889 84.6933 4.64933 82.824C3.54978 80.9546 3 78.1505 3 74.4118V50.1878C3 47.4357 3.54978 45.3067 4.64933 43.8008C5.80125 42.2949 7.34586 41.2564 9.28317 40.6852C11.2728 40.0621 13.5505 39.7505 16.1161 39.7505C19.9907 39.7505 23.08 40.4775 25.3838 41.9314C27.6876 43.3854 28.8395 46.1375 28.8395 50.1878V59.6126H20.0431V49.7984C20.0431 47.8251 19.6504 46.5529 18.865 45.9817C18.132 45.4105 17.2157 45.1249 16.1161 45.1249C14.9118 45.1249 13.9432 45.4105 13.2101 45.9817C12.5295 46.5529 12.1891 47.8251 12.1891 49.7984V77.6053C12.1891 79.5785 12.5295 80.8507 13.2101 81.4219C13.9432 81.9931 14.9118 82.2787 16.1161 82.2787C17.268 82.2787 18.2105 81.9931 18.9435 81.4219C19.6766 80.8507 20.0431 79.5785 20.0431 77.6053V68.7258H28.8395V74.4118C28.8395 78.1505 28.3159 80.9546 27.2687 82.824C26.2215 84.6933 24.7293 85.9136 22.792 86.4848C20.907 87.108 18.6556 87.4195 16.0376 87.4195Z" fill="#C58335"/>
<path d="M33.9808 86.4848V40.4515H59.7418V86.4848H50.5527V46.6049H43.2485V86.4848H33.9808Z" fill="#C58335"/>
<path d="M84.1308 86.4848L75.0202 62.5724L83.9737 40.4515H93.3984L83.6595 62.5724L93.7126 86.4848H84.1308ZM65.7525 86.4848V40.4515H74.5489V86.4848H65.7525Z" fill="#C58335"/>
<path d="M116.191 86.4848L107.08 62.5724L116.034 40.4515H125.459L115.72 62.5724L125.773 86.4848H116.191ZM97.8126 86.4848V40.4515H106.609V86.4848H97.8126Z" fill="#C58335"/>
<path fill-rule="evenodd" clip-rule="evenodd" d="M100.675 98.533C91.4208 108.037 78.4334 113.955 64.0329 113.955C49.6324 113.955 36.645 108.037 27.3912 98.533H20.6262C30.8878 111.023 46.521 119 64.0329 119C81.5448 119 97.178 111.023 107.44 98.533H100.675ZM29.6085 26.3234C38.6662 18.0815 50.7483 13.0455 64.0329 13.0455C77.3176 13.0455 89.3997 18.0815 98.4573 26.3234H105.585C95.3437 15.0716 80.521 8 64.0329 8C47.5448 8 32.7222 15.0716 22.4804 26.3234H29.6085Z" fill="url(#paint0_linear_421_422)"/>
<defs>
<linearGradient id="paint0_linear_421_422" x1="-4.85255" y1="62.9729" x2="161.697" y2="62.9729" gradientUnits="userSpaceOnUse">
<stop stop-color="#C4C4C4"/>
<stop offset="1" stop-color="#C4C4C4" stop-opacity="0"/>
</linearGradient>
</defs>
</svg>
