<svg width="16" height="16" viewBox="0 0 16 16" fill="none" xmlns="http://www.w3.org/2000/svg">
<path d="M2.42797 10.6986C2.14696 10.6986 1.8975 10.6645 1.67957 10.5962C1.46739 10.5336 1.30108 10.4 1.18065 10.1952C1.06022 9.9905 1 9.68338 1 9.27388V6.62071C1 6.31928 1.06022 6.08609 1.18065 5.92116C1.30681 5.75622 1.47599 5.64247 1.68818 5.57991C1.9061 5.51166 2.15556 5.47754 2.43657 5.47754C2.86094 5.47754 3.1993 5.55716 3.45163 5.71641C3.70396 5.87566 3.83012 6.17709 3.83012 6.62071V7.65297H2.86668V6.57805C2.86668 6.36193 2.82367 6.22259 2.73764 6.16003C2.65736 6.09747 2.557 6.06619 2.43657 6.06619C2.30467 6.06619 2.19857 6.09747 2.11829 6.16003C2.04373 6.22259 2.00646 6.36193 2.00646 6.57805V9.62366C2.00646 9.83978 2.04373 9.97912 2.11829 10.0417C2.19857 10.1042 2.30467 10.1355 2.43657 10.1355C2.56273 10.1355 2.66596 10.1042 2.74625 10.0417C2.82653 9.97912 2.86668 9.83978 2.86668 9.62366V8.65111H3.83012V9.27388C3.83012 9.68338 3.77278 9.9905 3.65808 10.1952C3.54338 10.4 3.37994 10.5336 3.16775 10.5962C2.9613 10.6645 2.71471 10.6986 2.42797 10.6986Z" fill="#C58335"/>
<path d="M4.39323 10.5962V5.55432H7.21475V10.5962H6.2083V6.22828H5.40829V10.5962H4.39323Z" fill="#C58335"/>
<path d="M9.886 10.5962L8.88815 7.97716L9.8688 5.55432H10.9011L9.83439 7.97716L10.9355 10.5962H9.886ZM7.87309 10.5962V5.55432H8.83654V10.5962H7.87309Z" fill="#C58335"/>
<path d="M13.3974 10.5962L12.3996 7.97716L13.3802 5.55432H14.4125L13.3458 7.97716L14.4469 10.5962H13.3974ZM11.3845 10.5962V5.55432H12.348V10.5962H11.3845Z" fill="#C58335"/>
<path fill-rule="evenodd" clip-rule="evenodd" d="M11.6983 11.9157C10.6847 12.9567 9.26223 13.6049 7.68494 13.6049C6.10766 13.6049 4.68514 12.9567 3.6716 11.9157H2.93066C4.05458 13.2837 5.76688 14.1575 7.68494 14.1575C9.60301 14.1575 11.3153 13.2837 12.4392 11.9157H11.6983ZM3.91465 4.00681C4.90669 3.10415 6.22997 2.55261 7.68494 2.55261C9.13992 2.55261 10.4632 3.10415 11.4552 4.00681H12.236C11.1142 2.77449 9.49079 2 7.68494 2C5.8791 2 4.25565 2.77449 3.1339 4.00681H3.91465Z" fill="url(#paint0_linear_421_419)"/>
<defs>
<linearGradient id="paint0_linear_421_419" x1="0.140007" y1="8.02101" x2="18.382" y2="8.02101" gradientUnits="userSpaceOnUse">
<stop stop-color="#C4C4C4"/>
<stop offset="1" stop-color="#C4C4C4" stop-opacity="0"/>
</linearGradient>
</defs>
</svg>
