<svg width="32" height="32" viewBox="0 0 32 32" fill="none" xmlns="http://www.w3.org/2000/svg">
<path d="M4.1713 21.3183C3.54723 21.3183 2.99321 21.2425 2.50923 21.091C2.038 20.952 1.66865 20.6552 1.40119 20.2005C1.13373 19.7458 1 19.0637 1 18.1543V12.262C1 11.5925 1.13373 11.0747 1.40119 10.7084C1.68138 10.3421 2.0571 10.0894 2.52834 9.9505C3.01231 9.79893 3.56633 9.72314 4.19041 9.72314C5.13288 9.72314 5.88431 9.89998 6.4447 10.2536C7.00509 10.6073 7.28529 11.2767 7.28529 12.262V14.5545H5.14562V12.1672C5.14562 11.6873 5.0501 11.3778 4.85905 11.2389C4.68075 11.0999 4.45786 11.0304 4.19041 11.0304C3.89747 11.0304 3.66186 11.0999 3.48355 11.2389C3.31798 11.3778 3.23519 11.6873 3.23519 12.1672V18.9311C3.23519 19.411 3.31798 19.7205 3.48355 19.8594C3.66186 19.9984 3.89747 20.0679 4.19041 20.0679C4.4706 20.0679 4.69985 19.9984 4.87816 19.8594C5.05646 19.7205 5.14562 19.411 5.14562 18.9311V16.7712H7.28529V18.1543C7.28529 19.0637 7.15793 19.7458 6.90321 20.2005C6.64848 20.6552 6.2855 20.952 5.81426 21.091C5.35576 21.2425 4.80811 21.3183 4.1713 21.3183Z" fill="#C58335"/>
<path d="M8.53587 21.091V9.89366H14.8021V21.091H12.5669V11.3904H10.7902V21.091H8.53587Z" fill="#C58335"/>
<path d="M20.7345 21.091L18.5184 15.2744L20.6963 9.89366H22.9888L20.6199 15.2744L23.0652 21.091H20.7345ZM16.2641 21.091V9.89366H18.4038V21.091H16.2641Z" fill="#C58335"/>
<path d="M28.5329 21.091L26.3168 15.2744L28.4947 9.89366H30.7872L28.4183 15.2744L30.8636 21.091H28.5329ZM24.0625 21.091V9.89366H26.2022V21.091H24.0625Z" fill="#C58335"/>
<path fill-rule="evenodd" clip-rule="evenodd" d="M24.7588 24.0214C22.5079 26.3333 19.3487 27.7727 15.8459 27.7727C12.343 27.7727 9.1838 26.3333 6.93287 24.0214H5.28735C7.78342 27.0596 11.5861 29 15.8459 29C20.1056 29 23.9083 27.0596 26.4044 24.0214H24.7588ZM7.47251 6.45689C9.67571 4.45219 12.6145 3.22727 15.8459 3.22727C19.0772 3.22727 22.016 4.45219 24.2192 6.45689H25.9531C23.4619 3.72005 19.8564 2 15.8459 2C11.8353 2 8.22985 3.72005 5.73861 6.45689H7.47251Z" fill="url(#paint0_linear_421_420)"/>
<defs>
<linearGradient id="paint0_linear_421_420" x1="-0.910286" y1="15.3718" x2="39.6024" y2="15.3718" gradientUnits="userSpaceOnUse">
<stop stop-color="#C4C4C4"/>
<stop offset="1" stop-color="#C4C4C4" stop-opacity="0"/>
</linearGradient>
</defs>
</svg>
