<svg width="64" height="64" viewBox="0 0 64 64" fill="none" xmlns="http://www.w3.org/2000/svg">
<path d="M8.3426 42.6366C7.09446 42.6366 5.98641 42.4851 5.01847 42.1819C4.07599 41.904 3.3373 41.3104 2.80238 40.401C2.26746 39.4915 2 38.1274 2 36.3085V24.5239C2 23.185 2.26746 22.1493 2.80238 21.4167C3.36277 20.6841 4.1142 20.1789 5.05668 19.901C6.02462 19.5979 7.13267 19.4463 8.38081 19.4463C10.2658 19.4463 11.7686 19.8 12.8894 20.5073C14.0102 21.2146 14.5706 22.5535 14.5706 24.5239V29.1089H10.2912V24.3344C10.2912 23.3745 10.1002 22.7556 9.71811 22.4777C9.36149 22.1998 8.91573 22.0609 8.38081 22.0609C7.79495 22.0609 7.32371 22.1998 6.9671 22.4777C6.63596 22.7556 6.47039 23.3745 6.47039 24.3344V37.8621C6.47039 38.8221 6.63596 39.441 6.9671 39.7189C7.32371 39.9968 7.79495 40.1357 8.38081 40.1357C8.9412 40.1357 9.3997 39.9968 9.75631 39.7189C10.1129 39.441 10.2912 38.8221 10.2912 37.8621V33.5424H14.5706V36.3085C14.5706 38.1274 14.3159 39.4915 13.8064 40.401C13.297 41.3104 12.571 41.904 11.6285 42.1819C10.7115 42.4851 9.61622 42.6366 8.3426 42.6366Z" fill="#C58335"/>
<path d="M17.0717 42.1819V19.7873H29.6041V42.1819H25.1337V22.7808H21.5803V42.1819H17.0717Z" fill="#C58335"/>
<path d="M41.469 42.1819L37.0368 30.5489L41.3926 19.7873H45.9776L41.2398 30.5489L46.1305 42.1819H41.469ZM32.5282 42.1819V19.7873H36.8076V42.1819H32.5282Z" fill="#C58335"/>
<path d="M57.0658 42.1819L52.6337 30.5489L56.9894 19.7873H61.5744L56.8366 30.5489L61.7273 42.1819H57.0658ZM48.1251 42.1819V19.7873H52.4044V42.1819H48.1251Z" fill="#C58335"/>
<path fill-rule="evenodd" clip-rule="evenodd" d="M49.5174 48.0431C45.0156 52.6667 38.6974 55.5455 31.6917 55.5455C24.6861 55.5455 18.3679 52.6667 13.866 48.0431H10.575C15.5671 54.1193 23.1724 58 31.6917 58C40.211 58 47.8164 54.1193 52.8085 48.0431H49.5174ZM14.9447 12.9141C19.3512 8.90449 25.2289 6.45455 31.6917 6.45455C38.1545 6.45455 44.0323 8.90449 48.4387 12.9141H51.9065C46.924 7.44022 39.713 4 31.6917 4C23.6705 4 16.4595 7.44022 11.477 12.9141H14.9447Z" fill="url(#paint0_linear_421_421)"/>
<defs>
<linearGradient id="paint0_linear_421_421" x1="-1.82013" y1="30.7436" x2="79.204" y2="30.7436" gradientUnits="userSpaceOnUse">
<stop stop-color="#C4C4C4"/>
<stop offset="1" stop-color="#C4C4C4" stop-opacity="0"/>
</linearGradient>
</defs>
</svg>
