<svg width="8" height="8" viewBox="0 0 8 8" fill="none" xmlns="http://www.w3.org/2000/svg">
<path d="M1.20163 5.59696C1.05314 5.59696 0.921306 5.57893 0.806144 5.54286C0.694013 5.5098 0.606126 5.43917 0.542484 5.33098C0.478842 5.22278 0.447021 5.06048 0.447021 4.84408V3.442C0.447021 3.28271 0.478842 3.15948 0.542484 3.07232C0.609157 2.98516 0.698559 2.92505 0.81069 2.89199C0.925852 2.85592 1.05768 2.83789 1.20618 2.83789C1.43044 2.83789 1.60925 2.87997 1.74259 2.96412C1.87594 3.04828 1.94261 3.20757 1.94261 3.442V3.9875H1.43347V3.41946C1.43347 3.30525 1.41074 3.23161 1.36528 3.19855C1.32286 3.16549 1.26982 3.14896 1.20618 3.14896C1.13648 3.14896 1.08041 3.16549 1.03798 3.19855C0.998585 3.23161 0.978887 3.30525 0.978887 3.41946V5.02892C0.978887 5.14313 0.998585 5.21677 1.03798 5.24983C1.08041 5.28289 1.13648 5.29942 1.20618 5.29942C1.27285 5.29942 1.3274 5.28289 1.36983 5.24983C1.41226 5.21677 1.43347 5.14313 1.43347 5.02892V4.51497H1.94261V4.84408C1.94261 5.06048 1.9123 5.22278 1.85169 5.33098C1.79108 5.43917 1.70471 5.5098 1.59258 5.54286C1.48348 5.57893 1.35316 5.59696 1.20163 5.59696Z" fill="#C58335"/>
<path d="M2.24018 5.54286V2.87847H3.73122V5.54286H3.19936V3.23462H2.7766V5.54286H2.24018Z" fill="#C58335"/>
<path d="M5.14285 5.54286L4.61554 4.15882L5.13376 2.87847H5.67927L5.11558 4.15882L5.69745 5.54286H5.14285ZM4.07912 5.54286V2.87847H4.58826V5.54286H4.07912Z" fill="#C58335"/>
<path d="M6.99849 5.54286L6.47117 4.15882L6.9894 2.87847H7.5349L6.97121 4.15882L7.55308 5.54286H6.99849ZM5.93476 5.54286V2.87847H6.44389V5.54286H5.93476Z" fill="#C58335"/>
<path fill-rule="evenodd" clip-rule="evenodd" d="M6.1004 6.24007C5.5648 6.79014 4.8131 7.13263 3.97963 7.13263C3.14615 7.13263 2.39445 6.79014 1.85885 6.24007H1.46729C2.06122 6.96297 2.96606 7.42466 3.97963 7.42466C4.99319 7.42466 5.89803 6.96297 6.49197 6.24007H6.1004ZM1.98711 2.06059C2.51137 1.58353 3.21069 1.29203 3.97963 1.29203C4.74856 1.29203 5.44788 1.58353 5.97214 2.06059H6.38471C5.79192 1.40932 4.93397 1 3.97963 1C3.02528 1 2.16733 1.40932 1.57454 2.06059H1.98711Z" fill="url(#paint0_linear_421_423)"/>
<defs>
<linearGradient id="paint0_linear_421_423" x1="-0.00740326" y1="4.18182" x2="9.63233" y2="4.18182" gradientUnits="userSpaceOnUse">
<stop stop-color="#C4C4C4"/>
<stop offset="1" stop-color="#C4C4C4" stop-opacity="0"/>
</linearGradient>
</defs>
</svg>
