<svg width="37" height="37" viewBox="0 0 37 37" fill="none" xmlns="http://www.w3.org/2000/svg">
<g clip-path="url(#clip0_267_2173)">
<path d="M18.5003 37.0001C28.7176 37.0001 37.0003 28.7173 37.0003 18.5C37.0003 8.28274 28.7176 0 18.5003 0C8.28299 0 0.000244141 8.28274 0.000244141 18.5C0.000244141 28.7173 8.28299 37.0001 18.5003 37.0001Z" fill="white"/>
<path d="M11.1979 15.2636C10.9525 15.2198 10.701 15.2249 10.4576 15.2786C10.2142 15.3323 9.98379 15.4335 9.7796 15.5764C9.57541 15.7193 9.40144 15.9011 9.26768 16.1114C9.13392 16.3217 9.04299 16.5563 9.00011 16.8019L8.35445 20.4649C8.30683 20.7377 8.31947 21.0177 8.39149 21.2852C8.46352 21.5526 8.59318 21.8011 8.77139 22.0132C8.9496 22.2252 9.17204 22.3957 9.42311 22.5127C9.67419 22.6297 9.94782 22.6904 10.2248 22.6904C11.1461 22.6904 11.9314 22.0309 12.0915 21.1225L12.7371 17.4614C12.824 16.9659 12.7107 16.4562 12.4221 16.0441C12.1335 15.6321 11.6932 15.3513 11.1979 15.2636ZM16.4898 13.5829C16.2444 13.5391 15.9928 13.5442 15.7493 13.598C15.5059 13.6517 15.2755 13.753 15.0712 13.896C14.867 14.039 14.6931 14.2209 14.5594 14.4313C14.4257 14.6417 14.3348 14.8765 14.292 15.1221L13.0525 22.1456C12.9656 22.6451 13.0766 23.1483 13.367 23.5627C13.5414 23.8136 13.7741 24.0183 14.0451 24.1593C14.3161 24.3003 14.6174 24.3733 14.9229 24.3721C15.8442 24.3721 16.6295 23.7125 16.7895 22.8042L18.029 15.7797C18.1159 15.2842 18.0026 14.7745 17.714 14.3625C17.4255 13.9504 16.9852 13.6697 16.4898 13.5819V13.5829ZM23.0056 12.4007C22.8313 12.1498 22.5986 11.945 22.3275 11.804C22.0565 11.663 21.7552 11.59 21.4497 11.5913C20.5284 11.5913 19.7431 12.2509 19.583 13.1592L17.6526 24.1066C17.5647 24.6061 17.6766 25.1093 17.9671 25.5246C18.1415 25.7753 18.3743 25.9799 18.6453 26.1207C18.9163 26.2616 19.2175 26.3344 19.5229 26.3331C20.4442 26.3331 21.2295 25.6745 21.3896 24.7661L23.3191 13.8178C23.363 13.5725 23.3578 13.321 23.3038 13.0778C23.2498 12.8345 23.1481 12.6044 23.0046 12.4007H23.0056ZM26.1829 15.2636C25.9376 15.2198 25.686 15.2249 25.4426 15.2786C25.1992 15.3323 24.9688 15.4335 24.7646 15.5764C24.5604 15.7193 24.3865 15.9011 24.2527 16.1114C24.1189 16.3217 24.028 16.5563 23.9851 16.8019L23.3395 20.4649C23.2919 20.7377 23.3045 21.0177 23.3765 21.2852C23.4485 21.5526 23.5782 21.8011 23.7564 22.0132C23.9346 22.2252 24.1571 22.3957 24.4081 22.5127C24.6592 22.6297 24.9328 22.6904 25.2098 22.6904C26.1311 22.6904 26.9155 22.0309 27.0765 21.1225L27.7221 17.4614C27.809 16.9659 27.6957 16.4562 27.4071 16.0441C27.1186 15.6321 26.6783 15.3513 26.1829 15.2636Z" fill="#787878"/>
</g>
<defs>
<clipPath id="clip0_267_2173">
<rect width="37.0001" height="37.0001" fill="white"/>
</clipPath>
</defs>
</svg>
