<svg width="67" height="61" viewBox="0 0 67 61" fill="none" xmlns="http://www.w3.org/2000/svg">
<path d="M7.11491 43.3418C5.71479 43.3418 4.47182 43.1717 3.38601 42.8317C2.32878 42.52 1.50013 41.854 0.90008 40.8339C0.300026 39.8137 0 38.2835 0 36.2431V23.0235C0 21.5216 0.300026 20.3598 0.90008 19.538C1.52871 18.7162 2.37164 18.1494 3.42887 17.8377C4.51468 17.4977 5.75765 17.3276 7.15777 17.3276C9.27225 17.3276 10.9581 17.7244 12.2154 18.5178C13.4726 19.3113 14.1012 20.8132 14.1012 23.0235V28.1669H9.30082V22.811C9.30082 21.7342 9.08652 21.0399 8.65791 20.7282C8.25787 20.4165 7.75783 20.2606 7.15777 20.2606C6.50057 20.2606 5.97196 20.4165 5.57192 20.7282C5.20046 21.0399 5.01473 21.7342 5.01473 22.811V37.9859C5.01473 39.0627 5.20046 39.757 5.57192 40.0687C5.97196 40.3805 6.50057 40.5363 7.15777 40.5363C7.7864 40.5363 8.30073 40.3805 8.70077 40.0687C9.1008 39.757 9.30082 39.0627 9.30082 37.9859V33.1401H14.1012V36.2431C14.1012 38.2835 13.8155 39.8137 13.244 40.8339C12.6725 41.854 11.8582 42.52 10.801 42.8317C9.77229 43.1717 8.54361 43.3418 7.11491 43.3418Z" fill="#C58335"/>
<path d="M16.907 42.8317V17.7102H30.9653V42.8317H25.9506V21.0682H21.9646V42.8317H16.907Z" fill="#C58335"/>
<path d="M44.275 42.8317L39.3031 29.7821L44.1893 17.7102H49.3326L44.0178 29.7821L49.504 42.8317H44.275ZM34.2455 42.8317V17.7102H39.046V42.8317H34.2455Z" fill="#C58335"/>
<path d="M61.771 42.8317L56.7991 29.7821L61.6852 17.7102H66.8286L61.5138 29.7821L67 42.8317H61.771ZM51.7415 42.8317V17.7102H56.5419V42.8317H51.7415Z" fill="#C58335"/>
<path fill-rule="evenodd" clip-rule="evenodd" d="M56.8015 45C51.8798 52.7013 43.2066 57.8219 33.3107 57.8219C23.4147 57.8219 14.7416 52.7013 9.81984 45H6.60938C11.8252 54.2904 21.8278 60.5753 33.3107 60.5753C44.7935 60.5753 54.7961 54.2904 60.0119 45H56.8015ZM10.1977 15C15.178 7.6201 23.6633 2.75342 33.3107 2.75342C42.958 2.75342 51.4433 7.6201 56.4236 15H59.6806C54.3797 6.02637 44.5548 0 33.3107 0C22.0665 0 12.2416 6.02637 6.94076 15H10.1977Z" fill="#D0D0D0"/>
</svg>
