<svg width="114" height="105" viewBox="0 0 114 105" fill="none" xmlns="http://www.w3.org/2000/svg">
<g opacity="0.67">
<path d="M0 81.9949V74.4955H1.23062V77.6142H1.60401L2.71366 76.373C2.97311 76.082 3.2308 75.791 3.48674 75.5C3.74268 75.2125 4.04069 74.8777 4.38078 74.4955H5.84279C5.47816 74.8917 5.1223 75.2809 4.77521 75.6631C4.42811 76.0452 4.08277 76.4274 3.73918 76.8095L2.65056 78.0086L3.86539 79.4601C4.08978 79.7265 4.33169 80.014 4.59114 80.3226C4.85059 80.6311 5.10477 80.9309 5.3537 81.2219C5.59912 81.5164 5.81474 81.7741 6.00056 81.9949H4.4807C4.18269 81.6443 3.90396 81.3148 3.64451 81.0062C3.38507 80.6977 3.13088 80.3962 2.88195 80.1017L1.61452 78.6029H1.23062V81.9949H0Z" fill="white"/>
<path d="M7.03832 82.1001C6.94015 82.1001 6.82971 82.0931 6.707 82.0791C6.58429 82.0651 6.47911 82.0458 6.39146 82.0212L6.44931 81.0693C6.5054 81.0799 6.5615 81.0886 6.6176 81.0956C6.67369 81.0991 6.71752 81.1009 6.74907 81.1009C6.92788 81.1009 7.07163 81.0325 7.18031 80.8958C7.289 80.7591 7.37314 80.5767 7.43275 80.3489C7.49586 80.1175 7.54143 79.865 7.56948 79.5916C7.59753 79.3146 7.62207 79.0376 7.64311 78.7606C7.66414 78.4205 7.68693 78.0822 7.71148 77.7456C7.73251 77.4091 7.75355 77.083 7.77458 76.7674H11.6663V81.9949H10.5408V77.6667H8.72647C8.70894 77.9192 8.69141 78.1716 8.67388 78.424C8.65284 78.68 8.63356 78.9289 8.61603 79.1708C8.58448 79.574 8.54416 79.9527 8.49507 80.3068C8.44949 80.6609 8.37411 80.9729 8.26893 81.2429C8.16375 81.5093 8.01299 81.7197 7.81666 81.874C7.62032 82.0247 7.36087 82.1001 7.03832 82.1001Z" fill="white"/>
<path d="M13.1597 81.9949V76.7674L14.243 76.7306V80.4277H14.3219L15.3001 78.829C15.514 78.4819 15.7261 78.1348 15.9364 77.7877C16.1468 77.4441 16.3554 77.104 16.5623 76.7674H17.735V81.9949H16.6569V78.3294H16.5728L15.6104 79.9071C15.3965 80.2577 15.1844 80.6083 14.974 80.9589C14.7602 81.3095 14.5481 81.6548 14.3377 81.9949H13.1597Z" fill="white"/>
<path d="M19.2302 81.9949V76.7674L20.3398 76.7254V78.9184H22.6485V76.7674H23.7582V81.9949H22.6485V79.8072H20.3398V81.9949H19.2302Z" fill="white"/>
<path d="M25.2493 81.9949V76.7674L26.3327 76.7306V80.4277H26.4115L27.3897 78.829C27.6036 78.4819 27.8157 78.1348 28.0261 77.7877C28.2364 77.4441 28.445 77.104 28.6519 76.7674H29.8247V81.9949H28.7466V78.3294H28.6624L27.7 79.9071C27.4861 80.2577 27.274 80.6083 27.0637 80.9589C26.8498 81.3095 26.6377 81.6548 26.4273 81.9949H25.2493Z" fill="white"/>
<path d="M31.3198 81.9949V76.7674L32.4294 76.7254V78.9184H34.7382V76.7674H35.8478V81.9949H34.7382V79.8072H32.4294V81.9949H31.3198Z" fill="white"/>
<path d="M37.3389 81.9949V76.7674H40.9677V77.6667H38.4644V81.9949H37.3389Z" fill="white"/>
<path d="M44.3187 82.1212C43.7191 82.1212 43.2195 81.9914 42.8198 81.732C42.4201 81.4725 42.1204 81.1342 41.9205 80.717C41.7207 80.2963 41.6208 79.8422 41.6208 79.3549C41.6208 78.8325 41.7259 78.3662 41.9363 77.956C42.1502 77.5458 42.4552 77.2232 42.8514 76.9883C43.2511 76.7534 43.7332 76.636 44.2976 76.636C44.8726 76.636 45.3582 76.7569 45.7544 76.9988C46.1541 77.2373 46.4556 77.5616 46.6589 77.9718C46.8658 78.382 46.9692 78.843 46.9692 79.3549C46.9692 79.8773 46.8623 80.3471 46.6484 80.7643C46.438 81.1815 46.1348 81.5129 45.7386 81.7583C45.3424 82.0002 44.8691 82.1212 44.3187 82.1212ZM44.3134 81.1745C44.65 81.1745 44.9305 81.0886 45.1548 80.9168C45.3792 80.7415 45.5458 80.5154 45.6545 80.2384C45.7666 79.9614 45.8227 79.6669 45.8227 79.3549C45.8227 78.8115 45.6843 78.3802 45.4073 78.0612C45.1338 77.7421 44.7674 77.5826 44.3081 77.5826C43.8068 77.5826 43.4246 77.7544 43.1617 78.098C42.8987 78.4381 42.7672 78.857 42.7672 79.3549C42.7672 79.6669 42.8233 79.9614 42.9355 80.2384C43.0512 80.5154 43.223 80.7415 43.4509 80.9168C43.6823 81.0886 43.9698 81.1745 44.3134 81.1745Z" fill="white"/>
<path d="M48.1857 81.9949V76.7674H50.7416C51.3937 76.7674 51.8512 76.8814 52.1142 77.1093C52.3771 77.3337 52.5086 77.6299 52.5086 77.9981C52.5086 78.3276 52.4245 78.5923 52.2562 78.7922C52.0879 78.992 51.8828 79.1253 51.6409 79.1919V79.276C51.8022 79.3146 51.9599 79.3794 52.1142 79.4706C52.2685 79.5582 52.3947 79.688 52.4928 79.8598C52.5945 80.0316 52.6454 80.2595 52.6454 80.5434C52.6454 80.8274 52.5822 81.0781 52.456 81.2955C52.3298 81.5129 52.1089 81.6846 51.7934 81.8109C51.4814 81.9336 51.0396 81.9949 50.4681 81.9949H48.1857ZM50.4786 77.6457H49.2796V78.9499H50.3419C50.7205 78.9499 50.9853 78.8868 51.136 78.7606C51.2868 78.6344 51.3621 78.4679 51.3621 78.261C51.3621 78.0401 51.285 77.8824 51.1307 77.7877C50.98 77.693 50.7626 77.6457 50.4786 77.6457ZM49.2796 81.1167H50.3472C50.7854 81.1167 51.0887 81.0588 51.257 80.9431C51.4253 80.8274 51.5094 80.6539 51.5094 80.4225C51.5094 80.1806 51.4182 80.0053 51.2359 79.8966C51.0571 79.7879 50.7889 79.7335 50.4313 79.7335H49.2796V81.1167Z" fill="white"/>
<path d="M55.129 82.1054C54.6802 82.1054 54.3086 81.9721 54.0141 81.7057C53.7196 81.4357 53.5723 81.0536 53.5723 80.5592C53.5723 80.1736 53.6565 79.8668 53.8248 79.6389C53.9966 79.411 54.2139 79.241 54.4769 79.1288C54.7399 79.0131 55.0098 78.9342 55.2868 78.8921L56.8382 78.6502C56.8522 78.3592 56.8084 78.1366 56.7067 77.9823C56.6051 77.828 56.4648 77.7228 56.286 77.6667C56.1072 77.6106 55.9039 77.5826 55.676 77.5826C55.434 77.5826 55.1606 77.6212 54.8556 77.6983C54.5505 77.7719 54.2192 77.8894 53.8616 78.0507L53.7985 77.0514C54.0579 76.9498 54.3787 76.8569 54.7609 76.7727C55.143 76.6851 55.5392 76.6412 55.9494 76.6412C56.57 76.6412 57.0538 76.7832 57.4009 77.0672C57.7515 77.3512 57.9268 77.814 57.9268 78.4556V81.9949H56.9118L56.8487 81.3007H56.7488C56.598 81.4936 56.3859 81.6759 56.1125 81.8477C55.8425 82.0195 55.5147 82.1054 55.129 82.1054ZM55.4972 81.2113C55.7496 81.2113 55.9933 81.1289 56.2282 80.9642C56.4666 80.7959 56.6612 80.5627 56.8119 80.2647V79.3391C56.7628 79.3707 56.6962 79.4005 56.6121 79.4285C56.5279 79.4566 56.4035 79.4881 56.2387 79.5232C56.0739 79.5582 55.8425 79.6021 55.5445 79.6547C55.285 79.7002 55.0817 79.7949 54.9344 79.9386C54.7872 80.0789 54.7136 80.27 54.7136 80.5119C54.7136 80.7678 54.7907 80.9484 54.945 81.0536C55.1027 81.1587 55.2868 81.2113 55.4972 81.2113Z" fill="white"/>
<path d="M58.858 81.9949C59.0368 81.7425 59.2156 81.4883 59.3944 81.2324C59.5767 80.9729 59.7538 80.7205 59.9256 80.4751L60.3568 79.8545C59.8905 79.7739 59.5575 79.6003 59.3576 79.3339C59.1613 79.0639 59.0631 78.7361 59.0631 78.3504C59.0631 77.7824 59.2437 77.3775 59.6048 77.1356C59.9694 76.8902 60.4936 76.7674 61.1772 76.7674H63.4229V81.9949H62.3342V80.0964H61.3929L61.0615 80.5803C60.9038 80.8187 60.7442 81.0571 60.583 81.2955C60.4217 81.5304 60.2622 81.7635 60.1044 81.9949H58.858ZM61.3455 79.3076H62.3342V77.6457H61.2772C61.1054 77.6457 60.9371 77.6685 60.7723 77.7141C60.6075 77.7561 60.4708 77.8385 60.3621 77.9613C60.2534 78.084 60.1991 78.2645 60.1991 78.5029C60.1991 78.7624 60.2639 78.95 60.3936 79.0656C60.5234 79.1778 60.6776 79.2462 60.8564 79.2708C61.0353 79.2953 61.1983 79.3076 61.3455 79.3076Z" fill="white"/>
<path d="M66.9313 81.9949V76.7674L68.0567 76.7254V78.9762H68.3617L69.0349 78.1979C69.2383 77.9595 69.4451 77.7193 69.6555 77.4774C69.8623 77.239 70.0674 77.0024 70.2708 76.7674H71.6171C71.3331 77.076 71.0509 77.3845 70.7704 77.693C70.4899 78.0016 70.2112 78.3101 69.9342 78.6186L69.3084 79.297L70.0446 80.128C70.3321 80.44 70.6214 80.752 70.9124 81.0641C71.2034 81.3761 71.4909 81.6864 71.7749 81.9949H70.3549C70.1481 81.7635 69.9395 81.5339 69.7291 81.306C69.5222 81.0746 69.3154 80.8467 69.1085 80.6223L68.3197 79.7546H68.0567V81.9949H66.9313Z" fill="white"/>
<path d="M74.856 82.1212C74.2565 82.1212 73.7569 81.9914 73.3572 81.732C72.9575 81.4725 72.6577 81.1342 72.4579 80.717C72.258 80.2963 72.1581 79.8422 72.1581 79.3549C72.1581 78.8325 72.2633 78.3662 72.4737 77.956C72.6875 77.5458 72.9925 77.2232 73.3887 76.9883C73.7884 76.7534 74.2705 76.636 74.835 76.636C75.41 76.636 75.8955 76.7569 76.2917 76.9988C76.6914 77.2373 76.9929 77.5616 77.1963 77.9718C77.4031 78.382 77.5066 78.843 77.5066 79.3549C77.5066 79.8773 77.3996 80.3471 77.1858 80.7643C76.9754 81.1815 76.6721 81.5129 76.2759 81.7583C75.8798 82.0002 75.4064 82.1212 74.856 82.1212ZM74.8507 81.1745C75.1873 81.1745 75.4678 81.0886 75.6922 80.9168C75.9166 80.7415 76.0831 80.5154 76.1918 80.2384C76.304 79.9614 76.3601 79.6669 76.3601 79.3549C76.3601 78.8115 76.2216 78.3802 75.9446 78.0612C75.6712 77.7421 75.3048 77.5826 74.8455 77.5826C74.3441 77.5826 73.962 77.7544 73.699 78.098C73.4361 78.4381 73.3046 78.857 73.3046 79.3549C73.3046 79.6669 73.3607 79.9614 73.4729 80.2384C73.5886 80.5154 73.7604 80.7415 73.9883 80.9168C74.2197 81.0886 74.5072 81.1745 74.8507 81.1745Z" fill="white"/>
<path d="M78.3611 81.9949C78.4032 81.6163 78.4435 81.2429 78.4821 80.8748C78.5242 80.5031 78.5645 80.135 78.6031 79.7704L78.682 79.0551C78.724 78.6765 78.7661 78.2943 78.8082 77.9087C78.8502 77.5265 78.8923 77.1461 78.9344 76.7674H80.165C80.2947 77.0795 80.4244 77.395 80.5542 77.7141C80.6874 78.0296 80.8171 78.3434 80.9433 78.6554L81.7006 80.4856H81.7953L82.5421 78.6554C82.6718 78.3364 82.7998 78.0209 82.926 77.7088C83.0557 77.3933 83.1854 77.0795 83.3152 76.7674H84.5247C84.5668 77.1391 84.6106 77.5195 84.6562 77.9087C84.6983 78.3013 84.7404 78.6852 84.7824 79.0604L84.8613 79.7861C84.8999 80.1402 84.9402 80.5014 84.9823 80.8695C85.0244 81.2411 85.0664 81.6163 85.1085 81.9949H84.0514C84.0094 81.6198 83.9673 81.2429 83.9252 80.8642C83.8866 80.4821 83.8481 80.1052 83.8095 79.7335L83.657 78.2926H83.5676L82.9786 79.823C82.8419 80.1841 82.7034 80.5452 82.5631 80.9063C82.4264 81.2674 82.2879 81.6303 82.1477 81.9949H81.3483C81.2045 81.6303 81.0625 81.2692 80.9223 80.9116C80.7785 80.554 80.6366 80.1981 80.4963 79.844L79.881 78.2926H79.7863L79.6338 79.7125C79.5953 80.0947 79.555 80.4768 79.5129 80.859C79.4708 81.2376 79.4287 81.6163 79.3867 81.9949H78.3611Z" fill="white"/>
<path d="M86.2829 81.9949V76.7674H90.8162V81.9949H89.696V77.6667H87.4083V81.9949H86.2829Z" fill="white"/>
<path d="M93.6165 82.1054C93.1678 82.1054 92.7961 81.9721 92.5016 81.7057C92.2071 81.4357 92.0599 81.0536 92.0599 80.5592C92.0599 80.1736 92.144 79.8668 92.3123 79.6389C92.4841 79.411 92.7015 79.241 92.9644 79.1288C93.2274 79.0131 93.4973 78.9342 93.7743 78.8921L95.3257 78.6502C95.3398 78.3592 95.2959 78.1366 95.1943 77.9823C95.0926 77.828 94.9523 77.7228 94.7735 77.6667C94.5947 77.6106 94.3914 77.5826 94.1635 77.5826C93.9216 77.5826 93.6481 77.6212 93.3431 77.6983C93.0381 77.7719 92.7067 77.8894 92.3491 78.0507L92.286 77.0514C92.5455 76.9498 92.8663 76.8569 93.2484 76.7727C93.6306 76.6851 94.0268 76.6412 94.437 76.6412C95.0575 76.6412 95.5414 76.7832 95.8885 77.0672C96.2391 77.3512 96.4144 77.814 96.4144 78.4556V81.9949H95.3994L95.3363 81.3007H95.2363C95.0856 81.4936 94.8735 81.6759 94.6 81.8477C94.33 82.0195 94.0022 82.1054 93.6165 82.1054ZM93.9847 81.2113C94.2371 81.2113 94.4808 81.1289 94.7157 80.9642C94.9541 80.7959 95.1487 80.5627 95.2994 80.2647V79.3391C95.2504 79.3707 95.1837 79.4005 95.0996 79.4285C95.0155 79.4566 94.891 79.4881 94.7262 79.5232C94.5614 79.5582 94.33 79.6021 94.032 79.6547C93.7726 79.7002 93.5692 79.7949 93.422 79.9386C93.2747 80.0789 93.2011 80.27 93.2011 80.5119C93.2011 80.7678 93.2782 80.9484 93.4325 81.0536C93.5903 81.1587 93.7743 81.2113 93.9847 81.2113Z" fill="white"/>
<path d="M97.7768 81.9949V76.7674L98.8864 76.7254V78.9184H101.195V76.7674H102.305V81.9949H101.195V79.8072H98.8864V81.9949H97.7768Z" fill="white"/>
<path d="M103.796 81.9949V76.7674L104.879 76.7306V80.4277H104.958L105.936 78.829C106.15 78.4819 106.362 78.1348 106.573 77.7877C106.783 77.4441 106.992 77.104 107.199 76.7674H108.371V81.9949H107.293V78.3294H107.209L106.247 79.9071C106.033 80.2577 105.821 80.6083 105.61 80.9589C105.396 81.3095 105.184 81.6548 104.974 81.9949H103.796Z" fill="white"/>
<path d="M109.435 81.9949C109.614 81.7425 109.793 81.4883 109.972 81.2324C110.154 80.9729 110.331 80.7205 110.503 80.4751L110.934 79.8545C110.468 79.7739 110.135 79.6003 109.935 79.3339C109.738 79.0639 109.64 78.7361 109.64 78.3504C109.64 77.7824 109.821 77.3775 110.182 77.1356C110.547 76.8902 111.071 76.7674 111.754 76.7674H114V81.9949H112.911V80.0964H111.97L111.639 80.5803C111.481 80.8187 111.321 81.0571 111.16 81.2955C110.999 81.5304 110.839 81.7635 110.682 81.9949H109.435ZM111.923 79.3076H112.911V77.6457H111.854C111.683 77.6457 111.514 77.6685 111.349 77.7141C111.185 77.7561 111.048 77.8385 110.939 77.9613C110.831 78.084 110.776 78.2645 110.776 78.5029C110.776 78.7624 110.841 78.95 110.971 79.0656C111.101 79.1778 111.255 79.2462 111.434 79.2708C111.612 79.2953 111.775 79.3076 111.923 79.3076Z" fill="white"/>
</g>
<path d="M12.0827 71.1154C9.70494 71.1154 7.59412 70.8243 5.75018 70.242C3.95476 69.7082 2.54755 68.5679 1.52853 66.821C0.50951 65.0741 0 62.4537 0 58.96V36.3232C0 33.7514 0.50951 31.7619 1.52853 30.3546C2.59607 28.9474 4.02755 27.9769 5.82297 27.4432C7.66691 26.8609 9.77773 26.5697 12.1554 26.5697C15.7463 26.5697 18.6092 27.2491 20.7443 28.6078C22.8794 29.9664 23.9469 32.5383 23.9469 36.3232V45.1304H15.7948V35.9592C15.7948 34.1153 15.4309 32.9265 14.703 32.3927C14.0236 31.8589 13.1745 31.592 12.1554 31.592C11.0394 31.592 10.1417 31.8589 9.46232 32.3927C8.8315 32.9265 8.51609 34.1153 8.51609 35.9592V61.9442C8.51609 63.7882 8.8315 64.977 9.46232 65.5108C10.1417 66.0446 11.0394 66.3115 12.1554 66.3115C13.223 66.3115 14.0964 66.0446 14.7758 65.5108C15.4551 64.977 15.7948 63.7882 15.7948 61.9442V53.6465H23.9469V58.96C23.9469 62.4537 23.4617 65.0741 22.4912 66.821C21.5207 68.5679 20.1378 69.7082 18.3423 70.242C16.5955 70.8243 14.5089 71.1154 12.0827 71.1154Z" fill="white"/>
<path d="M28.7117 70.242V27.2248H52.5858V70.242H44.0697V32.975H37.3005V70.242H28.7117Z" fill="white"/>
<path d="M75.1885 70.242L66.7452 47.8963L75.0429 27.2248H83.7774L74.7518 47.8963L84.0685 70.242H75.1885ZM58.1563 70.242V27.2248H66.3085V70.242H58.1563Z" fill="white"/>
<path d="M104.9 70.242L96.4571 47.8963L104.755 27.2248H113.489L104.464 47.8963L113.78 70.242H104.9ZM87.8682 70.242V27.2248H96.0204V70.242H87.8682Z" fill="white"/>
<path fill-rule="evenodd" clip-rule="evenodd" d="M92.2382 85C83.3498 94.6402 70.5593 100.693 56.3256 100.693C42.0919 100.693 29.3015 94.6402 20.413 85H14.7654C24.4586 97.1717 39.4723 104.983 56.3256 104.983C73.179 104.983 88.1926 97.1717 97.8859 85H92.2382ZM17.0901 24C25.9363 12.0542 40.2053 4.29 56.3256 4.29C72.4459 4.29 86.715 12.0542 95.5611 24H100.787C91.3571 9.55701 74.9668 0 56.3256 0C37.6845 0 21.2941 9.55701 11.8644 24H17.0901Z" fill="#B8B6B6"/>
</svg>
