<svg width="114" height="105" viewBox="0 0 114 105" fill="none" xmlns="http://www.w3.org/2000/svg">
<g opacity="0.67">
<path d="M0 80.995V73.4956H1.23062V76.6142H1.60401L2.71366 75.3731C2.97311 75.0821 3.2308 74.7911 3.48674 74.5001C3.74268 74.2126 4.04069 73.8778 4.38078 73.4956H5.84279C5.47816 73.8918 5.1223 74.281 4.77521 74.6631C4.42811 75.0453 4.08277 75.4274 3.73918 75.8096L2.65056 77.0086L3.86539 78.4601C4.08978 78.7266 4.33169 79.0141 4.59114 79.3226C4.85059 79.6312 5.10477 79.9309 5.3537 80.2219C5.59912 80.5164 5.81474 80.7741 6.00056 80.995H4.4807C4.18269 80.6444 3.90396 80.3148 3.64451 80.0063C3.38507 79.6978 3.13088 79.3962 2.88195 79.1017L1.61452 77.6029H1.23062V80.995H0Z" fill="white"/>
<path d="M7.03832 81.1002C6.94015 81.1002 6.82971 81.0932 6.707 81.0791C6.58429 81.0651 6.47911 81.0458 6.39146 81.0213L6.44931 80.0694C6.5054 80.0799 6.5615 80.0887 6.6176 80.0957C6.67369 80.0992 6.71752 80.101 6.74907 80.101C6.92788 80.101 7.07163 80.0326 7.18031 79.8959C7.289 79.7591 7.37314 79.5768 7.43275 79.3489C7.49586 79.1175 7.54143 78.8651 7.56948 78.5916C7.59753 78.3146 7.62207 78.0377 7.64311 77.7607C7.66414 77.4206 7.68693 77.0823 7.71148 76.7457C7.73251 76.4091 7.75355 76.0831 7.77458 75.7675H11.6663V80.995H10.5408V76.6668H8.72647C8.70894 76.9192 8.69141 77.1717 8.67388 77.4241C8.65284 77.68 8.63356 77.929 8.61603 78.1709C8.58448 78.5741 8.54416 78.9527 8.49507 79.3068C8.44949 79.661 8.37411 79.973 8.26893 80.243C8.16375 80.5094 8.01299 80.7198 7.81666 80.874C7.62032 81.0248 7.36087 81.1002 7.03832 81.1002Z" fill="white"/>
<path d="M13.1597 80.995V75.7675L14.243 75.7307V79.4278H14.3219L15.3001 77.8291C15.514 77.482 15.7261 77.1349 15.9364 76.7878C16.1468 76.4442 16.3554 76.1041 16.5623 75.7675H17.735V80.995H16.6569V77.3294H16.5728L15.6104 78.9072C15.3965 79.2578 15.1844 79.6084 14.974 79.959C14.7602 80.3096 14.5481 80.6549 14.3377 80.995H13.1597Z" fill="white"/>
<path d="M19.2302 80.995V75.7675L20.3398 75.7254V77.9185H22.6485V75.7675H23.7582V80.995H22.6485V78.8072H20.3398V80.995H19.2302Z" fill="white"/>
<path d="M25.2493 80.995V75.7675L26.3327 75.7307V79.4278H26.4115L27.3897 77.8291C27.6036 77.482 27.8157 77.1349 28.0261 76.7878C28.2364 76.4442 28.445 76.1041 28.6519 75.7675H29.8247V80.995H28.7466V77.3294H28.6624L27.7 78.9072C27.4861 79.2578 27.274 79.6084 27.0637 79.959C26.8498 80.3096 26.6377 80.6549 26.4273 80.995H25.2493Z" fill="white"/>
<path d="M31.3198 80.995V75.7675L32.4294 75.7254V77.9185H34.7382V75.7675H35.8478V80.995H34.7382V78.8072H32.4294V80.995H31.3198Z" fill="white"/>
<path d="M37.3389 80.995V75.7675H40.9677V76.6668H38.4644V80.995H37.3389Z" fill="white"/>
<path d="M44.3187 81.1212C43.7191 81.1212 43.2195 80.9915 42.8198 80.732C42.4201 80.4726 42.1204 80.1343 41.9205 79.717C41.7207 79.2963 41.6208 78.8423 41.6208 78.355C41.6208 77.8326 41.7259 77.3663 41.9363 76.9561C42.1502 76.5458 42.4552 76.2233 42.8514 75.9884C43.2511 75.7535 43.7332 75.636 44.2976 75.636C44.8726 75.636 45.3582 75.757 45.7544 75.9989C46.1541 76.2373 46.4556 76.5616 46.6589 76.9718C46.8658 77.382 46.9692 77.8431 46.9692 78.355C46.9692 78.8774 46.8623 79.3472 46.6484 79.7644C46.438 80.1816 46.1348 80.5129 45.7386 80.7583C45.3424 81.0003 44.8691 81.1212 44.3187 81.1212ZM44.3134 80.1746C44.65 80.1746 44.9305 80.0887 45.1548 79.9169C45.3792 79.7416 45.5458 79.5155 45.6545 79.2385C45.7666 78.9615 45.8227 78.667 45.8227 78.355C45.8227 77.8115 45.6843 77.3803 45.4073 77.0612C45.1338 76.7422 44.7674 76.5827 44.3081 76.5827C43.8068 76.5827 43.4246 76.7545 43.1617 77.098C42.8987 77.4381 42.7672 77.8571 42.7672 78.355C42.7672 78.667 42.8233 78.9615 42.9355 79.2385C43.0512 79.5155 43.223 79.7416 43.4509 79.9169C43.6823 80.0887 43.9698 80.1746 44.3134 80.1746Z" fill="white"/>
<path d="M48.1857 80.995V75.7675H50.7416C51.3937 75.7675 51.8512 75.8815 52.1142 76.1093C52.3771 76.3337 52.5086 76.63 52.5086 76.9981C52.5086 77.3277 52.4245 77.5924 52.2562 77.7922C52.0879 77.9921 51.8828 78.1253 51.6409 78.1919V78.2761C51.8022 78.3146 51.9599 78.3795 52.1142 78.4707C52.2685 78.5583 52.3947 78.688 52.4928 78.8598C52.5945 79.0316 52.6454 79.2595 52.6454 79.5435C52.6454 79.8275 52.5822 80.0782 52.456 80.2955C52.3298 80.5129 52.1089 80.6847 51.7934 80.8109C51.4814 80.9336 51.0396 80.995 50.4681 80.995H48.1857ZM50.4786 76.6458H49.2796V77.95H50.3419C50.7205 77.95 50.9853 77.8869 51.136 77.7607C51.2868 77.6345 51.3621 77.4679 51.3621 77.2611C51.3621 77.0402 51.285 76.8824 51.1307 76.7878C50.98 76.6931 50.7626 76.6458 50.4786 76.6458ZM49.2796 80.1167H50.3472C50.7854 80.1167 51.0887 80.0589 51.257 79.9432C51.4253 79.8275 51.5094 79.6539 51.5094 79.4225C51.5094 79.1806 51.4182 79.0053 51.2359 78.8966C51.0571 78.788 50.7889 78.7336 50.4313 78.7336H49.2796V80.1167Z" fill="white"/>
<path d="M55.129 81.1054C54.6802 81.1054 54.3086 80.9722 54.0141 80.7057C53.7196 80.4358 53.5723 80.0536 53.5723 79.5593C53.5723 79.1736 53.6565 78.8668 53.8248 78.6389C53.9966 78.4111 54.2139 78.241 54.4769 78.1288C54.7399 78.0131 55.0098 77.9342 55.2868 77.8922L56.8382 77.6502C56.8522 77.3592 56.8084 77.1366 56.7067 76.9823C56.6051 76.8281 56.4648 76.7229 56.286 76.6668C56.1072 76.6107 55.9039 76.5827 55.676 76.5827C55.434 76.5827 55.1606 76.6212 54.8556 76.6984C54.5505 76.772 54.2192 76.8894 53.8616 77.0507L53.7985 76.0515C54.0579 75.9498 54.3787 75.8569 54.7609 75.7728C55.143 75.6851 55.5392 75.6413 55.9494 75.6413C56.57 75.6413 57.0538 75.7833 57.4009 76.0673C57.7515 76.3513 57.9268 76.8141 57.9268 77.4557V80.995H56.9118L56.8487 80.3008H56.7488C56.598 80.4936 56.3859 80.6759 56.1125 80.8477C55.8425 81.0195 55.5147 81.1054 55.129 81.1054ZM55.4972 80.2114C55.7496 80.2114 55.9933 80.129 56.2282 79.9642C56.4666 79.7959 56.6612 79.5628 56.8119 79.2648V78.3392C56.7628 78.3707 56.6962 78.4005 56.6121 78.4286C56.5279 78.4566 56.4035 78.4882 56.2387 78.5232C56.0739 78.5583 55.8425 78.6021 55.5445 78.6547C55.285 78.7003 55.0817 78.795 54.9344 78.9387C54.7872 79.079 54.7136 79.27 54.7136 79.5119C54.7136 79.7679 54.7907 79.9484 54.945 80.0536C55.1027 80.1588 55.2868 80.2114 55.4972 80.2114Z" fill="white"/>
<path d="M58.858 80.995C59.0368 80.7426 59.2156 80.4884 59.3944 80.2324C59.5767 79.973 59.7538 79.7206 59.9256 79.4751L60.3568 78.8546C59.8905 78.7739 59.5575 78.6004 59.3576 78.3339C59.1613 78.064 59.0631 77.7361 59.0631 77.3505C59.0631 76.7825 59.2437 76.3776 59.6048 76.1356C59.9694 75.8902 60.4936 75.7675 61.1772 75.7675H63.4229V80.995H62.3342V79.0965H61.3929L61.0615 79.5803C60.9038 79.8187 60.7442 80.0571 60.583 80.2955C60.4217 80.5304 60.2622 80.7636 60.1044 80.995H58.858ZM61.3455 78.3076H62.3342V76.6458H61.2772C61.1054 76.6458 60.9371 76.6686 60.7723 76.7141C60.6075 76.7562 60.4708 76.8386 60.3621 76.9613C60.2534 77.084 60.1991 77.2646 60.1991 77.503C60.1991 77.7624 60.2639 77.95 60.3936 78.0657C60.5234 78.1779 60.6776 78.2463 60.8564 78.2708C61.0353 78.2954 61.1983 78.3076 61.3455 78.3076Z" fill="white"/>
<path d="M66.9313 80.995V75.7675L68.0567 75.7254V77.9763H68.3617L69.0349 77.198C69.2383 76.9596 69.4451 76.7194 69.6555 76.4775C69.8623 76.2391 70.0674 76.0024 70.2708 75.7675H71.6171C71.3331 76.076 71.0509 76.3846 70.7704 76.6931C70.4899 77.0016 70.2112 77.3102 69.9342 77.6187L69.3084 78.2971L70.0446 79.128C70.3321 79.4401 70.6214 79.7521 70.9124 80.0641C71.2034 80.3762 71.4909 80.6865 71.7749 80.995H70.3549C70.1481 80.7636 69.9395 80.534 69.7291 80.3061C69.5222 80.0747 69.3154 79.8468 69.1085 79.6224L68.3197 78.7546H68.0567V80.995H66.9313Z" fill="white"/>
<path d="M74.856 81.1212C74.2565 81.1212 73.7569 80.9915 73.3572 80.732C72.9575 80.4726 72.6577 80.1343 72.4579 79.717C72.258 79.2963 72.1581 78.8423 72.1581 78.355C72.1581 77.8326 72.2633 77.3663 72.4737 76.9561C72.6875 76.5458 72.9925 76.2233 73.3887 75.9884C73.7884 75.7535 74.2705 75.636 74.835 75.636C75.41 75.636 75.8955 75.757 76.2917 75.9989C76.6914 76.2373 76.9929 76.5616 77.1963 76.9718C77.4031 77.382 77.5066 77.8431 77.5066 78.355C77.5066 78.8774 77.3996 79.3472 77.1858 79.7644C76.9754 80.1816 76.6721 80.5129 76.2759 80.7583C75.8798 81.0003 75.4064 81.1212 74.856 81.1212ZM74.8507 80.1746C75.1873 80.1746 75.4678 80.0887 75.6922 79.9169C75.9166 79.7416 76.0831 79.5155 76.1918 79.2385C76.304 78.9615 76.3601 78.667 76.3601 78.355C76.3601 77.8115 76.2216 77.3803 75.9446 77.0612C75.6712 76.7422 75.3048 76.5827 74.8455 76.5827C74.3441 76.5827 73.962 76.7545 73.699 77.098C73.4361 77.4381 73.3046 77.8571 73.3046 78.355C73.3046 78.667 73.3607 78.9615 73.4729 79.2385C73.5886 79.5155 73.7604 79.7416 73.9883 79.9169C74.2197 80.0887 74.5072 80.1746 74.8507 80.1746Z" fill="white"/>
<path d="M78.3611 80.995C78.4032 80.6163 78.4435 80.243 78.4821 79.8748C78.5242 79.5032 78.5645 79.135 78.6031 78.7704L78.682 78.0552C78.724 77.6765 78.7661 77.2944 78.8082 76.9087C78.8502 76.5266 78.8923 76.1462 78.9344 75.7675H80.165C80.2947 76.0795 80.4244 76.3951 80.5542 76.7141C80.6874 77.0297 80.8171 77.3435 80.9433 77.6555L81.7006 79.4857H81.7953L82.5421 77.6555C82.6718 77.3365 82.7998 77.0209 82.926 76.7089C83.0557 76.3933 83.1854 76.0795 83.3152 75.7675H84.5247C84.5668 76.1391 84.6106 76.5196 84.6562 76.9087C84.6983 77.3014 84.7404 77.6853 84.7824 78.0605L84.8613 78.7862C84.8999 79.1403 84.9402 79.5014 84.9823 79.8696C85.0244 80.2412 85.0664 80.6163 85.1085 80.995H84.0514C84.0094 80.6199 83.9673 80.243 83.9252 79.8643C83.8866 79.4821 83.8481 79.1052 83.8095 78.7336L83.657 77.2926H83.5676L82.9786 78.823C82.8419 79.1841 82.7034 79.5453 82.5631 79.9064C82.4264 80.2675 82.2879 80.6304 82.1477 80.995H81.3483C81.2045 80.6304 81.0625 80.2692 80.9223 79.9116C80.7785 79.554 80.6366 79.1982 80.4963 78.844L79.881 77.2926H79.7863L79.6338 78.7126C79.5953 79.0947 79.555 79.4769 79.5129 79.859C79.4708 80.2377 79.4287 80.6163 79.3867 80.995H78.3611Z" fill="white"/>
<path d="M86.2829 80.995V75.7675H90.8162V80.995H89.696V76.6668H87.4083V80.995H86.2829Z" fill="white"/>
<path d="M93.6165 81.1054C93.1678 81.1054 92.7961 80.9722 92.5016 80.7057C92.2071 80.4358 92.0599 80.0536 92.0599 79.5593C92.0599 79.1736 92.144 78.8668 92.3123 78.6389C92.4841 78.4111 92.7015 78.241 92.9644 78.1288C93.2274 78.0131 93.4973 77.9342 93.7743 77.8922L95.3257 77.6502C95.3398 77.3592 95.2959 77.1366 95.1943 76.9823C95.0926 76.8281 94.9523 76.7229 94.7735 76.6668C94.5947 76.6107 94.3914 76.5827 94.1635 76.5827C93.9216 76.5827 93.6481 76.6212 93.3431 76.6984C93.0381 76.772 92.7067 76.8894 92.3491 77.0507L92.286 76.0515C92.5455 75.9498 92.8663 75.8569 93.2484 75.7728C93.6306 75.6851 94.0268 75.6413 94.437 75.6413C95.0575 75.6413 95.5414 75.7833 95.8885 76.0673C96.2391 76.3513 96.4144 76.8141 96.4144 77.4557V80.995H95.3994L95.3363 80.3008H95.2363C95.0856 80.4936 94.8735 80.6759 94.6 80.8477C94.33 81.0195 94.0022 81.1054 93.6165 81.1054ZM93.9847 80.2114C94.2371 80.2114 94.4808 80.129 94.7157 79.9642C94.9541 79.7959 95.1487 79.5628 95.2994 79.2648V78.3392C95.2504 78.3707 95.1837 78.4005 95.0996 78.4286C95.0155 78.4566 94.891 78.4882 94.7262 78.5232C94.5614 78.5583 94.33 78.6021 94.032 78.6547C93.7726 78.7003 93.5692 78.795 93.422 78.9387C93.2747 79.079 93.2011 79.27 93.2011 79.5119C93.2011 79.7679 93.2782 79.9484 93.4325 80.0536C93.5903 80.1588 93.7743 80.2114 93.9847 80.2114Z" fill="white"/>
<path d="M97.7768 80.995V75.7675L98.8864 75.7254V77.9185H101.195V75.7675H102.305V80.995H101.195V78.8072H98.8864V80.995H97.7768Z" fill="white"/>
<path d="M103.796 80.995V75.7675L104.879 75.7307V79.4278H104.958L105.936 77.8291C106.15 77.482 106.362 77.1349 106.573 76.7878C106.783 76.4442 106.992 76.1041 107.199 75.7675H108.371V80.995H107.293V77.3294H107.209L106.247 78.9072C106.033 79.2578 105.821 79.6084 105.61 79.959C105.396 80.3096 105.184 80.6549 104.974 80.995H103.796Z" fill="white"/>
<path d="M109.435 80.995C109.614 80.7426 109.793 80.4884 109.972 80.2324C110.154 79.973 110.331 79.7206 110.503 79.4751L110.934 78.8546C110.468 78.7739 110.135 78.6004 109.935 78.3339C109.738 78.064 109.64 77.7361 109.64 77.3505C109.64 76.7825 109.821 76.3776 110.182 76.1356C110.547 75.8902 111.071 75.7675 111.754 75.7675H114V80.995H112.911V79.0965H111.97L111.639 79.5803C111.481 79.8187 111.321 80.0571 111.16 80.2955C110.999 80.5304 110.839 80.7636 110.682 80.995H109.435ZM111.923 78.3076H112.911V76.6458H111.854C111.683 76.6458 111.514 76.6686 111.349 76.7141C111.185 76.7562 111.048 76.8386 110.939 76.9613C110.831 77.084 110.776 77.2646 110.776 77.503C110.776 77.7624 110.841 77.95 110.971 78.0657C111.101 78.1779 111.255 78.2463 111.434 78.2708C111.612 78.2954 111.775 78.3076 111.923 78.3076Z" fill="white"/>
</g>
<path d="M12.0827 70.1155C9.70494 70.1155 7.59412 69.8244 5.75018 69.2421C3.95476 68.7083 2.54755 67.568 1.52853 65.8211C0.50951 64.0742 0 61.4539 0 57.9601V35.3233C0 32.7515 0.50951 30.762 1.52853 29.3548C2.59607 27.9475 4.02755 26.977 5.82297 26.4433C7.66691 25.861 9.77773 25.5698 12.1554 25.5698C15.7463 25.5698 18.6092 26.2492 20.7443 27.6079C22.8794 28.9666 23.9469 31.5384 23.9469 35.3233V44.1305H15.7948V34.9594C15.7948 33.1154 15.4309 31.9266 14.703 31.3928C14.0236 30.859 13.1745 30.5921 12.1554 30.5921C11.0394 30.5921 10.1417 30.859 9.46232 31.3928C8.8315 31.9266 8.51609 33.1154 8.51609 34.9594V60.9443C8.51609 62.7883 8.8315 63.9771 9.46232 64.5109C10.1417 65.0447 11.0394 65.3116 12.1554 65.3116C13.223 65.3116 14.0964 65.0447 14.7758 64.5109C15.4551 63.9771 15.7948 62.7883 15.7948 60.9443V52.6466H23.9469V57.9601C23.9469 61.4539 23.4617 64.0742 22.4912 65.8211C21.5207 67.568 20.1378 68.7083 18.3423 69.2421C16.5955 69.8244 14.5089 70.1155 12.0827 70.1155Z" fill="white"/>
<path d="M28.7117 69.2421V26.2249H52.5858V69.2421H44.0697V31.9751H37.3005V69.2421H28.7117Z" fill="white"/>
<path d="M75.1885 69.2421L66.7452 46.8964L75.0429 26.2249H83.7774L74.7518 46.8964L84.0685 69.2421H75.1885ZM58.1563 69.2421V26.2249H66.3085V69.2421H58.1563Z" fill="white"/>
<path d="M104.9 69.2421L96.4571 46.8964L104.755 26.2249H113.489L104.464 46.8964L113.78 69.2421H104.9ZM87.8682 69.2421V26.2249H96.0204V69.2421H87.8682Z" fill="white"/>
<path fill-rule="evenodd" clip-rule="evenodd" d="M93.4444 86.639C84.1999 96.5116 70.9954 102.692 56.3261 102.692C41.6567 102.692 28.4522 96.5116 19.2077 86.639H16.126C25.8334 97.8685 40.2419 104.983 56.3261 104.983C72.4103 104.983 86.8188 97.8685 96.5262 86.639H93.4444ZM19.2089 18.3433C28.4534 8.47142 41.6573 2.29117 56.3261 2.29117C70.9948 2.29117 84.1988 8.47142 93.4433 18.3433H96.5251C86.8177 7.11447 72.4097 0 56.3261 0C40.2425 0 25.8344 7.11447 16.1271 18.3433H19.2089Z" fill="url(#paint0_linear_107_527)"/>
<defs>
<linearGradient id="paint0_linear_107_527" x1="-7.4706" y1="51.9932" x2="146.775" y2="51.9932" gradientUnits="userSpaceOnUse">
<stop stop-color="#C4C4C4"/>
<stop offset="1" stop-color="#C4C4C4" stop-opacity="0"/>
</linearGradient>
</defs>
</svg>
