<svg width="38" height="38" viewBox="0 0 38 38" fill="none" xmlns="http://www.w3.org/2000/svg">
<path d="M15.1426 16.3947C15.1426 15.3907 15.5414 14.4278 16.2514 13.7178C16.9613 13.0079 17.9243 12.609 18.9283 12.609C19.9323 12.609 20.8952 13.0079 21.6052 13.7178C22.3152 14.4278 22.714 15.3907 22.714 16.3947C22.714 17.3988 22.3152 18.3617 21.6052 19.0716C20.8952 19.7816 19.9323 20.1804 18.9283 20.1804C17.9243 20.1804 16.9613 19.7816 16.2514 19.0716C15.5414 18.3617 15.1426 17.3988 15.1426 16.3947Z" fill="#212020"/>
<path d="M2.52344 16.3947C2.52545 12.0454 4.25477 7.87499 7.33111 4.80054C10.4075 1.72608 14.5789 -0.00066949 18.9282 1.9472e-07C27.9861 1.9472e-07 35.333 7.34176 35.333 16.3947C35.333 23.1433 31.9561 28.4913 28.337 32.1054C26.7371 33.7122 24.9441 35.1143 22.9991 36.2798C22.1864 36.7593 21.4268 37.1379 20.7655 37.3953C20.1421 37.6426 19.4885 37.8344 18.9282 37.8344C18.3679 37.8344 17.7142 37.6426 17.0909 37.3953C16.3189 37.0811 15.5722 36.7082 14.8573 36.2798C12.9123 35.1143 11.1193 33.7121 9.51944 32.1054C5.90029 28.4913 2.52344 23.1433 2.52344 16.3947ZM18.9282 10.0877C17.2548 10.0877 15.65 10.7524 14.4667 11.9357C13.2834 13.1189 12.6187 14.7238 12.6187 16.3972C12.6187 18.0706 13.2834 19.6754 14.4667 20.8587C15.65 22.042 17.2548 22.7067 18.9282 22.7067C20.6016 22.7067 22.2064 22.042 23.3897 20.8587C24.573 19.6754 25.2377 18.0706 25.2377 16.3972C25.2377 14.7238 24.573 13.1189 23.3897 11.9357C22.2064 10.7524 20.6016 10.0877 18.9282 10.0877Z" fill="#212020"/>
</svg>
